<svg width="16" height="14" viewBox="0 0 16 14" fill="none"
    xmlns="http://www.w3.org/2000/svg">
    <path d="M6.99216 0.796936C7.10591 0.844749 7.20297 0.925163 7.27109 1.02804C7.33921 1.13093 7.37536 1.25167 7.37497 1.37506L7.37497 6.37506L14.875 6.37506C15.0407 6.37506 15.1997 6.44091 15.3169 6.55812C15.4341 6.67533 15.5 6.8343 15.5 7.00006C15.5 7.16582 15.4341 7.32479 15.3169 7.442C15.1997 7.55921 15.0407 7.62506 14.875 7.62506L7.37497 7.62506L7.37498 12.6251C7.37536 12.7485 7.33921 12.8692 7.27109 12.9721C7.20297 13.075 7.10591 13.1554 6.99216 13.2032C6.87672 13.2482 6.75089 13.2596 6.62922 13.2361C6.50755 13.2126 6.39503 13.1552 6.30466 13.0704L0.679663 7.44537C0.562299 7.32688 0.49646 7.16684 0.49646 7.00006C0.49646 6.83328 0.562299 6.67324 0.679663 6.55475L6.30466 0.929748C6.39503 0.84496 6.50755 0.787491 6.62922 0.763987C6.75088 0.740484 6.87672 0.751907 6.99216 0.796936Z" fill="white"/>
</svg>
