<svg width="22" height="22" viewBox="0 0 22 22" fill="none"
    xmlns="http://www.w3.org/2000/svg">
    <path d="M21.0124 13.0999L19.6155 11.2436C19.6249 11.0749 19.6155 10.8968 19.6155 10.7655L21.0124 8.8999C21.0819 8.8091 21.1291 8.70329 21.1502 8.59095C21.1714 8.47861 21.1659 8.36287 21.1343 8.25302C20.898 7.3887 20.5547 6.55727 20.1124 5.77802C20.0553 5.67904 19.9769 5.59402 19.8829 5.52915C19.7888 5.46428 19.6815 5.42119 19.5686 5.40302L17.2718 5.0749L16.9249 4.72802L16.5968 2.43115C16.5784 2.31958 16.5363 2.21327 16.4732 2.11944C16.4101 2.02561 16.3276 1.94647 16.2311 1.8874C15.4478 1.44669 14.6135 1.10352 13.7468 0.865522C13.6369 0.833859 13.5212 0.828391 13.4088 0.849557C13.2965 0.870723 13.1907 0.917933 13.0999 0.987397L11.2436 2.3749H10.7561L8.8999 0.987397C8.8091 0.917933 8.70329 0.870723 8.59095 0.849557C8.47861 0.828391 8.36287 0.833859 8.25302 0.865522C7.3887 1.10179 6.55727 1.44507 5.77802 1.8874C5.67904 1.94447 5.59402 2.02288 5.52915 2.11694C5.46428 2.211 5.42119 2.31834 5.40302 2.43115L5.0749 4.72802L4.72802 5.0749L2.43115 5.40302C2.31834 5.42119 2.211 5.46428 2.11694 5.52915C2.02288 5.59402 1.94447 5.67904 1.8874 5.77802C1.44507 6.55727 1.10179 7.3887 0.865522 8.25302C0.833859 8.36287 0.828391 8.47861 0.849557 8.59095C0.870723 8.70329 0.917933 8.8091 0.987397 8.8999L2.38427 10.7561V11.2343L0.987397 13.0999C0.917933 13.1907 0.870723 13.2965 0.849557 13.4088C0.828391 13.5212 0.833859 13.6369 0.865522 13.7468C1.10179 14.6111 1.44507 15.4425 1.8874 16.2218C1.94447 16.3208 2.02288 16.4058 2.11694 16.4706C2.211 16.5355 2.31834 16.5786 2.43115 16.5968L4.72802 16.9249L5.0749 17.2718L5.40302 19.5686C5.42119 19.6815 5.46428 19.7888 5.52915 19.8829C5.59402 19.9769 5.67904 20.0553 5.77802 20.1124C6.55727 20.5547 7.3887 20.898 8.25302 21.1343C8.31701 21.1528 8.38328 21.1623 8.4499 21.1624C8.61251 21.1645 8.77108 21.1117 8.8999 21.0124L10.7561 19.6249H11.2436L13.0999 21.0124C13.1907 21.0819 13.2965 21.1291 13.4088 21.1502C13.5212 21.1714 13.6369 21.1659 13.7468 21.1343C14.6117 20.8997 15.4433 20.5563 16.2218 20.1124C16.3208 20.0553 16.4058 19.9769 16.4706 19.8829C16.5355 19.7888 16.5786 19.6815 16.5968 19.5686L16.9249 17.2624C17.0374 17.1499 17.1686 17.028 17.2624 16.9249L19.5686 16.5968C19.6815 16.5786 19.7888 16.5355 19.8829 16.4706C19.9769 16.4058 20.0553 16.3208 20.1124 16.2218C20.5547 15.4425 20.898 14.6111 21.1343 13.7468C21.1659 13.6369 21.1714 13.5212 21.1502 13.4088C21.1291 13.2965 21.0819 13.1907 21.0124 13.0999ZM10.9999 15.1249C10.184 15.1249 9.38652 14.883 8.70817 14.4297C8.02982 13.9764 7.50111 13.3322 7.18889 12.5785C6.87668 11.8247 6.79499 10.9953 6.95416 10.1951C7.11332 9.39498 7.50619 8.65997 8.08308 8.08308C8.65997 7.50619 9.39498 7.11332 10.1951 6.95416C10.9953 6.79499 11.8247 6.87668 12.5785 7.18889C13.3322 7.50111 13.9764 8.02982 14.4297 8.70817C14.883 9.38652 15.1249 10.184 15.1249 10.9999C15.1249 12.0939 14.6903 13.1431 13.9167 13.9167C13.1431 14.6903 12.0939 15.1249 10.9999 15.1249Z" fill="white"/>
</svg>
